<svg xmlns="http://www.w3.org/2000/svg" width="637.887" height="396.992" viewBox="0 0 637.887 396.992"><g transform="translate(-55.949 -276.255)"><g transform="translate(55.949 276.283)"><path d="M380.922,207.328l-31.476,38.987,25.088-43.467a62.885,62.885,0,0,0-12.146-5.777,62.55,62.55,0,1,0-124.736-3.413l56.854,3.74-55.854,5.018a62.643,62.643,0,0,0,27.7,41.134l31.124-20.194-25.884,23.206a62.682,62.682,0,0,0,7.949,3.419,62.538,62.538,0,0,0,41.622,65.161,62.544,62.544,0,0,0,85.083,64.383,21.453,21.453,0,0,0,2.895,6.894,20.539,20.539,0,0,0,7.918,7.338A21.366,21.366,0,0,0,428.3,411.37a21.4,21.4,0,0,0,11.239,17.608,21.391,21.391,0,0,0,11.233,17.62,20.613,20.613,0,0,0,3.32,10.27c5.079,7.955,14.127,11.263,20.206,7.406s6.888-13.473,1.808-21.434a20.638,20.638,0,0,0-7.906-7.35,21.4,21.4,0,0,0-11.257-17.633,21.391,21.391,0,0,0-11.245-17.608,21.366,21.366,0,0,0-11.239-17.608,20.607,20.607,0,0,0-3.327-10.27,21.353,21.353,0,0,0-4.937-5.468,62.538,62.538,0,0,0-22.163-104.641,62.587,62.587,0,0,0-23.1-54.928Z" transform="translate(-98.055 -128.39)" fill="rgba(255,255,2,0.13)"/><path d="M653.045,197.936l-5.616,3.561,3.413-6.2a5.554,5.554,0,0,0-3.4-1.234h-.086a6.66,6.66,0,0,1-1.166-.086l-1.907,1.234.821-1.487a6.789,6.789,0,0,1-3.333-2.524l-3.407,2.16,2.154-3.913a9.98,9.98,0,0,0-7.634-3.863c-3.549,0-6.7,2.111-8.739,5.394a6.523,6.523,0,0,1-5.777,3.086h-.191c-3.913,0-7.085,4.437-7.085,9.875s3.172,9.906,7.085,9.906a5.32,5.32,0,0,0,2.469-.617,10.22,10.22,0,0,1,8.572-.167,8.961,8.961,0,0,0,7.289,0,10.233,10.233,0,0,1,8.5.167,5.314,5.314,0,0,0,2.469.617c3.913,0,7.085-4.431,7.085-9.906a12.515,12.515,0,0,0-1.512-6Z" transform="translate(-241.042 -150.295)" fill="#6c63fb"/><path d="M642.457,220.461a10.492,10.492,0,0,0-6.067.66,8.961,8.961,0,0,1-7.289,0,10.233,10.233,0,0,0-8.579.167,5.277,5.277,0,0,1-2.469.617c-3.481,0-6.369-3.5-6.974-8.116a6.745,6.745,0,0,0,1.74-1.852c2.037-3.283,5.2-5.388,8.739-5.388s6.659,2.08,8.7,5.326a6.7,6.7,0,0,0,5.777,3.172h.093C638.9,215.005,641.272,217.227,642.457,220.461Z" transform="translate(-241.038 -158.323)" opacity="0.03"/><path d="M789.858,248.723l9.048,5.752-5.48-9.967a8.936,8.936,0,0,1,5.462-1.944h.142a10.539,10.539,0,0,0,1.851-.136l3.055,1.938-1.327-2.382a10.974,10.974,0,0,0,5.351-4.061l5.474,3.468-3.419-6.289a16.007,16.007,0,0,1,12.263-6.172c5.7,0,10.763,3.382,14.041,8.64a10.492,10.492,0,0,0,9.258,5.005h.309c6.283,0,11.374,7.122,11.374,15.911S852.167,274.4,845.884,274.4a8.554,8.554,0,0,1-3.968-.994,16.41,16.41,0,0,0-13.769-.265,14.368,14.368,0,0,1-11.726,0,16.441,16.441,0,0,0-13.652.265,8.579,8.579,0,0,1-3.919.969c-6.289,0-11.381-7.122-11.381-15.917a20.231,20.231,0,0,1,2.388-9.739Z" transform="translate(-308.565 -166.891)" fill="#6c63fb"/><path d="M818.89,284.892a16.885,16.885,0,0,1,9.751,1.062,14.368,14.368,0,0,0,11.726,0,16.423,16.423,0,0,1,13.775.265,8.529,8.529,0,0,0,3.962.994c5.585,0,10.227-5.622,11.2-13.041a10.764,10.764,0,0,1-2.79-3.012c-3.277-5.271-8.344-8.64-14.041-8.64s-10.7,3.345-13.973,8.566a10.763,10.763,0,0,1-9.258,5.092H829.1C824.617,276.135,820.766,279.7,818.89,284.892Z" transform="translate(-320.594 -179.75)" opacity="0.03"/><ellipse cx="264.704" cy="12.961" rx="264.704" ry="12.961" transform="translate(0 371.043)" fill="#3f3d56"/><rect width="392.719" height="281.429" rx="20.42" transform="translate(105.844 96.249)" fill="#f2f2f2"/><path d="M575.719,296.963v7.147H183v-7.147c0-6.96,4.305-12.6,9.615-12.6H566.1C571.414,284.36,575.719,290,575.719,296.963Z" transform="translate(-77.156 -188.111)" fill="#3f3d56"/><circle cx="3.703" cy="3.703" r="3.703" transform="translate(115.411 102.729)" fill="#6c63ff"/><circle cx="3.703" cy="3.703" r="3.703" transform="translate(124.668 102.729)" fill="#6c63ff"/><circle cx="3.703" cy="3.703" r="3.703" transform="translate(133.926 102.729)" fill="#6c63ff"/><path d="M347.5,503.86" transform="translate(-140.131 -272.142)" fill="none" stroke="#f2f2f2" stroke-miterlimit="10" stroke-width="2"/><path d="M333.5,502.86" transform="translate(-134.772 -271.76)" fill="none" stroke="#f2f2f2" stroke-miterlimit="10" stroke-width="2"/><rect width="59.248" height="48.139" rx="9.29" transform="translate(184.225 310.407)" fill="#fff"/><rect width="59.248" height="48.139" rx="9.29" transform="translate(253.348 310.407)" fill="#fff"/><rect width="59.248" height="48.139" rx="9.29" transform="translate(322.471 310.407)" fill="#fff"/><rect width="59.248" height="48.139" rx="9.29" transform="translate(391.593 310.407)" fill="red" opacity="0.3"/><path d="M1006.685,748.824c7.721.062,17.935-1.2,19.99-2.469,1.568-.957,2.191-4.376,2.4-5.956h.228s-.432,5.517-2.469,6.789-12.275,2.518-20,2.469c-2.228,0-2.993-.808-2.95-1.981C1004.179,748.368,1005.024,748.793,1006.685,748.824Z" transform="translate(-391.417 -362.697)" opacity="0.2"/><path d="M180.935,673.379c-2.709-5.011.364-11.158,3.894-15.633s7.838-9.122,7.752-14.812c-.136-8.19-8.826-13.022-15.775-17.367a76.908,76.908,0,0,1-14.158-11.381,20.853,20.853,0,0,1-4.32-5.826c-1.438-3.2-1.395-6.844-1.3-10.356q.444-17.528,1.728-35.024" transform="translate(-67.197 -294.775)" fill="none" stroke="#3f3d56" stroke-miterlimit="10" stroke-width="4"/><path d="M138.4,554.36a12.763,12.763,0,0,1,6.375-10.492l2.864,5.66-.086-6.851a12.775,12.775,0,1,1-9.153,11.658Z" transform="translate(-60.076 -286.803)" fill="#57b894"/><path d="M174.432,690.455a12.769,12.769,0,1,0-.617-10.282l7.974,6.486L173,684.629A12.72,12.72,0,0,0,174.432,690.455Z" transform="translate(-73.327 -336.452)" fill="#57b894"/><path d="M177.985,645.981a12.775,12.775,0,0,0,4.049-25.057l.068,5.258-2.895-5.721h-.031a12.775,12.775,0,1,0-1.191,25.521Z" transform="translate(-70.573 -316.776)" fill="#57b894"/><path d="M127.732,612.547a12.782,12.782,0,0,0,13.356-12.164,12.615,12.615,0,0,0-1.234-6.054,12.757,12.757,0,0,0-17.793-5.684l2.253,6.172-4.641-4.456a12.775,12.775,0,0,0,8.023,22.175Z" transform="translate(-51.327 -303.974)" fill="#57b894"/><path d="M140.3,562.115c2.944.327,5.814,1.234,8.77,1.426s6.209-.525,8.079-2.827a39.667,39.667,0,0,0,2.364-4.154,9.116,9.116,0,0,1,3.215-3.03,12.775,12.775,0,1,1-23.878,8.48C139.331,562.028,139.819,562.065,140.3,562.115Z" transform="translate(-60.254 -291.158)" opacity="0.1"/><path d="M127.942,617.089A12.782,12.782,0,0,0,141.3,604.924a12.615,12.615,0,0,0-1.234-6.054,9.5,9.5,0,0,0-2.567,2.567,40.829,40.829,0,0,1-2.53,4.221c-1.987,2.339-5.388,3.086-8.468,2.962s-6.061-1.012-9.128-1.3c-.426-.037-.858-.068-1.29-.08a12.769,12.769,0,0,0,11.862,9.844Z" transform="translate(-51.536 -308.515)" opacity="0.1"/><path d="M178.335,650.664a12.769,12.769,0,0,0,12.251-17.984,10.3,10.3,0,0,0-2.7,2.6c-.994,1.4-1.611,3.012-2.777,4.32-2.154,2.4-5.777,3.246-9.042,3.172-3.16-.074-6.209-.846-9.35-1.086A12.782,12.782,0,0,0,178.335,650.664Z" transform="translate(-70.923 -321.459)" opacity="0.1"/><path d="M175.32,695.534a12.775,12.775,0,0,0,23.286-10.424,12.9,12.9,0,0,0-2.808,2.469c-1.234,1.481-2.012,3.16-3.419,4.542-2.611,2.561-6.826,3.617-10.578,3.7A54.97,54.97,0,0,1,175.32,695.534Z" transform="translate(-74.215 -341.531)" opacity="0.1"/><path d="M203.732,729.135s-10.078-.309-13.121-2.469-15.5-4.746-16.256-1.278-15.151,17.281-3.771,17.349,26.446-1.771,29.476-3.623S203.732,729.135,203.732,729.135Z" transform="translate(-70.733 -356.302)" fill="#656380"/><path d="M170.422,744.889c11.381.093,26.446-1.771,29.476-3.617,2.308-1.407,3.234-6.456,3.536-8.782h.339s-.617,8.128-3.672,9.973-18.1,3.7-29.476,3.623c-3.283,0-4.419-1.2-4.357-2.925C166.719,744.216,167.953,744.87,170.422,744.889Z" transform="translate(-70.749 -359.669)" opacity="0.2"/><path d="M917.544,601.24a37.971,37.971,0,0,0-5.1,2.987,4.146,4.146,0,0,0-.673.549,5.042,5.042,0,0,0-.413.543,10.2,10.2,0,0,0-1.74,3.468" transform="translate(-355.329 -309.423)" fill="none" stroke="#000" stroke-miterlimit="10" stroke-width="1" opacity="0.1"/></g><rect width="59.248" height="48.139" rx="9.29" transform="translate(240.297 423.992)" fill="#6c63ff"/><path d="M515.821,352.747l-3.123-3.141a1.654,1.654,0,0,0-2.351,0l-19.6,19.435-8.289-8.356a1.642,1.642,0,0,0-2.333,0L476.97,363.8a1.679,1.679,0,0,0,0,2.358l12.584,12.683a1.679,1.679,0,0,0,2.358,0L515.821,355.1a1.654,1.654,0,0,0,0-2.358Z" transform="translate(-199.562 62.382)" fill="#3acc6c"/><text transform="translate(260 424)" fill="#070606" font-size="40" font-family="HelveticaNeue-Bold, Helvetica Neue" font-weight="700"><tspan x="0" y="39">8</tspan></text><g transform="translate(69)"><rect width="59.248" height="48.139" rx="9.29" transform="translate(240.297 423.992)" fill="#6c63ff"/><path d="M515.821,352.747l-3.123-3.141a1.654,1.654,0,0,0-2.351,0l-19.6,19.435-8.289-8.356a1.642,1.642,0,0,0-2.333,0L476.97,363.8a1.679,1.679,0,0,0,0,2.358l12.584,12.683a1.679,1.679,0,0,0,2.358,0L515.821,355.1a1.654,1.654,0,0,0,0-2.358Z" transform="translate(-199.562 62.382)" fill="#3acc6c"/><text transform="translate(260 424)" fill="#070606" font-size="40" font-family="HelveticaNeue-Bold, Helvetica Neue" font-weight="700"><tspan x="0" y="39">8</tspan></text></g><g transform="translate(138)"><rect width="59.248" height="48.139" rx="9.29" transform="translate(240.297 423.992)" fill="#6c63ff"/><path d="M515.821,352.747l-3.123-3.141a1.654,1.654,0,0,0-2.351,0l-19.6,19.435-8.289-8.356a1.642,1.642,0,0,0-2.333,0L476.97,363.8a1.679,1.679,0,0,0,0,2.358l12.584,12.683a1.679,1.679,0,0,0,2.358,0L515.821,355.1a1.654,1.654,0,0,0,0-2.358Z" transform="translate(-199.562 62.382)" fill="#3acc6c"/><text transform="translate(260 424)" fill="#070606" font-size="40" font-family="HelveticaNeue-Bold, Helvetica Neue" font-weight="700"><tspan x="0" y="39">8</tspan></text></g><g transform="translate(207)"><rect width="59.248" height="48.139" rx="9.29" transform="translate(240.297 423.992)" fill="#6c63ff"/><path d="M515.821,352.747l-3.123-3.141a1.654,1.654,0,0,0-2.351,0l-19.6,19.435-8.289-8.356a1.642,1.642,0,0,0-2.333,0L476.97,363.8a1.679,1.679,0,0,0,0,2.358l12.584,12.683a1.679,1.679,0,0,0,2.358,0L515.821,355.1a1.654,1.654,0,0,0,0-2.358Z" transform="translate(-199.562 62.382)" fill="#3acc6c"/><text transform="translate(260 424)" fill="#070606" font-size="40" font-family="HelveticaNeue-Bold, Helvetica Neue" font-weight="700"><tspan x="0" y="39">8</tspan></text></g><g transform="translate(0 81)"><rect width="59.248" height="48.139" rx="9.29" transform="translate(240.297 423.992)" fill="#6c63ff"/><path d="M515.821,352.747l-3.123-3.141a1.654,1.654,0,0,0-2.351,0l-19.6,19.435-8.289-8.356a1.642,1.642,0,0,0-2.333,0L476.97,363.8a1.679,1.679,0,0,0,0,2.358l12.584,12.683a1.679,1.679,0,0,0,2.358,0L515.821,355.1a1.654,1.654,0,0,0,0-2.358Z" transform="translate(-199.562 62.382)" fill="#3acc6c"/><text transform="translate(260 424)" fill="#070606" font-size="40" font-family="HelveticaNeue-Bold, Helvetica Neue" font-weight="700"><tspan x="0" y="39">8</tspan></text><g transform="translate(69)"><rect width="59.248" height="48.139" rx="9.29" transform="translate(240.297 423.992)" fill="#6c63ff"/><path d="M515.821,352.747l-3.123-3.141a1.654,1.654,0,0,0-2.351,0l-19.6,19.435-8.289-8.356a1.642,1.642,0,0,0-2.333,0L476.97,363.8a1.679,1.679,0,0,0,0,2.358l12.584,12.683a1.679,1.679,0,0,0,2.358,0L515.821,355.1a1.654,1.654,0,0,0,0-2.358Z" transform="translate(-199.562 62.382)" fill="#3acc6c"/><text transform="translate(260 424)" fill="#070606" font-size="40" font-family="HelveticaNeue-Bold, Helvetica Neue" font-weight="700"><tspan x="0" y="39">8</tspan></text></g><g transform="translate(138)"><rect width="59.248" height="48.139" rx="9.29" transform="translate(240.297 423.992)" fill="#fff"/></g><g transform="translate(207)"><rect width="59.248" height="48.139" rx="9.29" transform="translate(240.297 423.992)" fill="#fff"/></g></g></g></svg>